<?xml version="1.0" encoding="utf-8"?>
<!-- Generator: Adobe Illustrator 24.3.0, SVG Export Plug-In . SVG Version: 6.00 Build 0)  -->
<svg version="1.1" id="Слой_1" xmlns="http://www.w3.org/2000/svg" xmlns:xlink="http://www.w3.org/1999/xlink" x="0px" y="0px"
	 viewBox="0 0 500 500" style="enable-background:new 0 0 500 500;" xml:space="preserve">
<style type="text/css">
	.st0{opacity:0.4;fill:url(#SVGID_1_);}
	.st1{opacity:0.4;fill:url(#SVGID_2_);}
</style>
<linearGradient id="SVGID_1_" gradientUnits="userSpaceOnUse" x1="18" y1="343.7962" x2="482.8079" y2="343.7962">
	<stop  offset="0" style="stop-color:#ABF538"/>
	<stop  offset="1" style="stop-color:#FED919"/>
</linearGradient>
<path class="st0" d="M383.3,492H122.6c-24.6,0-44.5-20-44.5-44.5L41.1,274.1c-14-6.9-23.1-21-23.1-36.8c0-23,18.7-41.7,41.7-41.7
	h381.3c23,0,41.7,18.7,41.7,41.7c0,13.5-6.5,25.8-17.4,33.6l-37.9,179.4C427.8,472,407.8,492,383.3,492 M59.7,223
	c-7.9,0-14.4,6.4-14.4,14.4c0,6.2,4.5,11.8,11,13.4c5,1.3,8.9,5.3,10,10.4l38.8,183.5c0.3,12.3,8,19.9,17.4,19.9h260.7
	c9.5,0,17.1-7.7,17.1-17.1l39.4-188c0.9-4.1,3.6-7.6,7.4-9.5c5.1-2.5,8.2-7.4,8.2-12.7c0-7.9-6.4-14.4-14.4-14.4H59.7z"/>
<linearGradient id="SVGID_2_" gradientUnits="userSpaceOnUse" x1="91.4325" y1="84.4676" x2="409.9267" y2="84.4676">
	<stop  offset="0" style="stop-color:#ABF538"/>
	<stop  offset="1" style="stop-color:#FED919"/>
</linearGradient>
<path class="st1" d="M120.8,146.7C129.9,83,184.5,34,250.7,34s120.8,49,129.9,112.6c1.3,21.7,29.3,18.3,29.3,0
	C400.6,66.9,332.9,5,250.7,5C168.4,5,100.8,66.9,91.4,146.7C91.4,169.3,121.1,170.1,120.8,146.7"/>
</svg>
